<svg width="32" height="40" viewBox="0 0 32 40" fill="none" xmlns="http://www.w3.org/2000/svg">
<path d="M7.31063 30C7.45996 30 7.60929 29.8507 7.75863 29.552C7.90796 29.2533 7.98263 28.7627 7.98263 28.08V12.72C7.98263 12.0373 7.90796 11.5573 7.75863 11.28C7.60929 10.9813 7.45996 10.8213 7.31063 10.8H25.3266V11.44L25.9666 14.512C25.4333 14.2773 24.4946 14.032 23.1506 13.776C21.8066 13.4987 20.1853 13.36 18.2866 13.36H12.8786C12.2386 13.36 11.8546 13.4133 11.7266 13.52C11.62 13.6053 11.5666 13.872 11.5666 14.32V17.968C11.5666 18.4373 11.62 18.7147 11.7266 18.8C11.8546 18.8853 12.228 18.928 12.8466 18.928H18.1266C19.364 18.928 20.356 18.864 21.1026 18.736C21.8706 18.5867 22.372 18.4373 22.6066 18.288C22.5213 18.5653 22.4253 18.896 22.3186 19.28C22.212 19.664 22.1266 20.048 22.0626 20.432C21.9986 20.816 21.9666 21.168 21.9666 21.488H12.8466C12.228 21.488 11.8546 21.5307 11.7266 21.616C11.62 21.68 11.5666 21.9573 11.5666 22.448V28.08C11.5666 28.784 11.6413 29.2853 11.7906 29.584C11.94 29.8613 12.0893 30 12.2386 30H7.31063Z" fill="#0038FF"/>
<path d="M7.75863 11.28L7.31141 11.5036L7.3148 11.5104L7.31839 11.517L7.75863 11.28ZM7.31063 10.8V10.3L7.23992 11.295L7.31063 10.8ZM25.3266 10.8H25.8266V10.3H25.3266V10.8ZM25.3266 11.44H24.8266V11.4915L24.8371 11.542L25.3266 11.44ZM25.9666 14.512L25.7653 14.9697L26.6542 15.3608L26.4561 14.41L25.9666 14.512ZM23.1506 13.776L23.0496 14.2657L23.0571 14.2672L23.1506 13.776ZM11.7266 13.52L12.039 13.9105L12.0467 13.9041L11.7266 13.52ZM11.7266 18.8L11.4143 19.1904L11.4312 19.204L11.4493 19.216L11.7266 18.8ZM21.1026 18.736L21.1871 19.2289L21.1981 19.2268L21.1026 18.736ZM22.6066 18.288L23.0845 18.435L23.4839 17.1371L22.3382 17.8662L22.6066 18.288ZM22.0626 20.432L21.5694 20.3498L21.5694 20.3498L22.0626 20.432ZM21.9666 21.488V21.988H22.4666V21.488H21.9666ZM11.7266 21.616L11.9839 22.0447L11.9941 22.0386L12.004 22.032L11.7266 21.616ZM11.7906 29.584L11.3434 29.8076L11.3468 29.8144L11.3504 29.8211L11.7906 29.584ZM7.31063 30.5C7.56467 30.5 7.75901 30.3707 7.88818 30.2416C8.01632 30.1134 8.11941 29.9485 8.20584 29.7756L7.31141 29.3284C7.28125 29.3887 7.25409 29.4354 7.2306 29.4706C7.20682 29.5063 7.1898 29.5257 7.18107 29.5344C7.1609 29.5546 7.20591 29.5 7.31063 29.5V30.5ZM8.20584 29.7756C8.41038 29.3665 8.48263 28.7755 8.48263 28.08H7.48263C7.48263 28.7498 7.40554 29.1401 7.31141 29.3284L8.20584 29.7756ZM8.48263 28.08V12.72H7.48263V28.08H8.48263ZM8.48263 12.72C8.48263 12.0299 8.41204 11.4388 8.19886 11.0429L7.31839 11.517C7.40388 11.6758 7.48263 12.0448 7.48263 12.72H8.48263ZM8.20584 11.0564C8.11973 10.8842 8.01994 10.7232 7.90015 10.5948C7.78173 10.468 7.61008 10.3377 7.38133 10.305L7.23992 11.295C7.1605 11.2836 7.13819 11.244 7.1691 11.2772C7.19865 11.3088 7.24819 11.3772 7.31141 11.5036L8.20584 11.0564ZM7.31063 11.3H25.3266V10.3H7.31063V11.3ZM24.8266 10.8V11.44H25.8266V10.8H24.8266ZM24.8371 11.542L25.4771 14.614L26.4561 14.41L25.8161 11.338L24.8371 11.542ZM26.168 14.0543C25.5777 13.7946 24.5891 13.541 23.2442 13.2848L23.0571 14.2672C24.4002 14.523 25.2889 14.7601 25.7653 14.9697L26.168 14.0543ZM23.2517 13.2863C21.8645 13.0001 20.2073 12.86 18.2866 12.86V13.86C20.1632 13.86 21.7487 13.9973 23.0496 14.2657L23.2517 13.2863ZM18.2866 12.86H12.8786V13.86H18.2866V12.86ZM12.8786 12.86C12.5483 12.86 12.2665 12.8736 12.0418 12.9048C11.9295 12.9204 11.8205 12.9418 11.7215 12.9728C11.6285 13.0018 11.5102 13.0495 11.4065 13.1359L12.0467 13.9041C12.007 13.9372 11.9847 13.9382 12.0198 13.9272C12.0488 13.9182 12.0998 13.9063 12.1794 13.8952C12.3388 13.8731 12.5689 13.86 12.8786 13.86V12.86ZM11.4143 13.1296C11.2137 13.2901 11.1467 13.5344 11.1163 13.6859C11.0804 13.8655 11.0666 14.0813 11.0666 14.32H12.0666C12.0666 14.1107 12.0795 13.9691 12.0969 13.8821C12.1055 13.839 12.1126 13.8232 12.1118 13.8249C12.1111 13.8266 12.1064 13.8365 12.096 13.8511C12.0855 13.8659 12.0672 13.8878 12.039 13.9104L11.4143 13.1296ZM11.0666 14.32V17.968H12.0666V14.32H11.0666ZM11.0666 17.968C11.0666 18.2165 11.0803 18.439 11.1156 18.6224C11.1447 18.7738 11.2098 19.0268 11.4143 19.1904L12.039 18.4096C12.0691 18.4337 12.0881 18.4571 12.0987 18.4723C12.1093 18.4873 12.1137 18.4972 12.1141 18.4982C12.1142 18.4984 12.1066 18.4802 12.0976 18.4336C12.0796 18.3397 12.0666 18.1888 12.0666 17.968H11.0666ZM11.4493 19.216C11.5496 19.2829 11.6596 19.3187 11.7449 19.3405C11.837 19.364 11.9391 19.3806 12.0459 19.3928C12.2595 19.4172 12.5287 19.428 12.8466 19.428V18.428C12.5458 18.428 12.3191 18.4175 12.1594 18.3992C12.0795 18.3901 12.0256 18.38 11.9923 18.3715C11.9524 18.3613 11.9677 18.3598 12.004 18.384L11.4493 19.216ZM12.8466 19.428H18.1266V18.428H12.8466V19.428ZM18.1266 19.428C19.3769 19.428 20.4007 19.3636 21.1871 19.2288L21.0181 18.2432C20.3113 18.3644 19.351 18.428 18.1266 18.428V19.428ZM21.1981 19.2268C21.591 19.1504 21.9255 19.0722 22.1974 18.9912C22.4607 18.9128 22.6982 18.8224 22.8751 18.7098L22.3382 17.8662C22.2804 17.9029 22.1499 17.9619 21.9119 18.0328C21.6824 18.1012 21.3822 18.1723 21.0072 18.2452L21.1981 19.2268ZM22.1287 18.141C22.0417 18.424 21.9443 18.7593 21.8369 19.1462L22.8004 19.4138C22.9062 19.0327 23.0009 18.7067 23.0845 18.435L22.1287 18.141ZM21.8369 19.1462C21.7256 19.5468 21.6364 19.948 21.5694 20.3498L22.5558 20.5142C22.6169 20.148 22.6983 19.7812 22.8004 19.4138L21.8369 19.1462ZM21.5694 20.3498C21.5018 20.7554 21.4666 21.1353 21.4666 21.488H22.4666C22.4666 21.2007 22.4954 20.8766 22.5558 20.5142L21.5694 20.3498ZM21.9666 20.988H12.8466V21.988H21.9666V20.988ZM12.8466 20.988C12.5287 20.988 12.2595 20.9988 12.0459 21.0232C11.9391 21.0354 11.837 21.052 11.7449 21.0755C11.6596 21.0973 11.5496 21.1331 11.4493 21.2L12.004 22.032C11.9677 22.0562 11.9524 22.0547 11.9923 22.0445C12.0256 22.036 12.0795 22.0259 12.1594 22.0168C12.3191 21.9985 12.5458 21.988 12.8466 21.988V20.988ZM11.4694 21.1873C11.324 21.2745 11.2458 21.4025 11.2039 21.4918C11.1599 21.5856 11.1333 21.6856 11.1156 21.7776C11.0802 21.962 11.0666 22.1905 11.0666 22.448H12.0666C12.0666 22.2149 12.0798 22.0594 12.0976 21.9664C12.1066 21.9197 12.1133 21.9077 12.1094 21.9162C12.1075 21.9202 12.0759 21.9895 11.9839 22.0447L11.4694 21.1873ZM11.0666 22.448V28.08H12.0666V22.448H11.0666ZM11.0666 28.08C11.0666 28.7939 11.1382 29.3973 11.3434 29.8076L12.2378 29.3604C12.1443 29.1734 12.0666 28.7741 12.0666 28.08H11.0666ZM11.3504 29.8211C11.4385 29.9846 11.5438 30.1412 11.6744 30.2624C11.8074 30.3859 11.9978 30.5 12.2386 30.5V29.5C12.3301 29.5 12.3712 29.5448 12.3549 29.5296C12.3472 29.5225 12.3314 29.5059 12.3088 29.4744C12.2864 29.4433 12.2602 29.4015 12.2309 29.3469L11.3504 29.8211ZM12.2386 29.5H7.31063V30.5H12.2386V29.5Z" fill="black"/>
</svg>
